<?xml version="1.0" encoding="UTF-8" standalone="no"?>
<!-- Created with Inkscape (http://www.inkscape.org/) -->

<svg
   xmlns:dc="http://purl.org/dc/elements/1.1/"
   xmlns:cc="http://creativecommons.org/ns#"
   xmlns:rdf="http://www.w3.org/1999/02/22-rdf-syntax-ns#"
   xmlns:svg="http://www.w3.org/2000/svg"
   xmlns="http://www.w3.org/2000/svg"
   xmlns:xlink="http://www.w3.org/1999/xlink"
   version="1.1"
   width="32"
   height="16"
   id="svg2">
  <defs
     id="defs4">
    <linearGradient
       id="linearGradient2994">
      <stop
         id="stop2996"
         style="stop-color:#88ff88;stop-opacity:1"
         offset="0" />
      <stop
         id="stop2998"
         style="stop-color:#66cc66;stop-opacity:1"
         offset="1" />
    </linearGradient>
    <linearGradient
       x1="0"
       y1="1052.3622"
       x2="0"
       y2="1036.3622"
       id="linearGradient3000"
       xlink:href="#linearGradient2994"
       gradientUnits="userSpaceOnUse" />
    <linearGradient
       x1="0"
       y1="1052.3622"
       x2="0"
       y2="1036.3622"
       id="linearGradient3782"
       xlink:href="#linearGradient2994"
       gradientUnits="userSpaceOnUse"
       gradientTransform="translate(16,0)" />
  </defs>
  <metadata
     id="metadata7">
    <rdf:RDF>
      <cc:Work
         rdf:about="">
        <dc:format>image/svg+xml</dc:format>
        <dc:type
           rdf:resource="http://purl.org/dc/dcmitype/StillImage" />
        <dc:title></dc:title>
      </cc:Work>
    </rdf:RDF>
  </metadata>
  <g
     transform="translate(0,-1036.3622)"
     id="layer1">
    <rect
       width="16"
       height="16"
       rx="4.0000172"
       ry="4.0000172"
       x="0"
       y="1036.3622"
       id="rect2991"
       style="color:#000000;fill:url(#linearGradient3000);fill-opacity:1;fill-rule:nonzero;stroke:none;stroke-width:2;marker:none;visibility:visible;display:inline;overflow:visible;enable-background:accumulate" />
    <path
       d="M 4,0 C 1.7839905,0 0,1.7839905 0,4 l 0,8 c 0,2.21601 1.7839905,4 4,4 l 8,0 c 2.21601,0 4,-1.78399 4,-4 L 16,4 C 16,1.7839905 14.21601,0 12,0 L 4,0 z m 1,1 6,0 c 2.21601,0 4,1.7839905 4,4 l 0,6 c 0,2.21601 -1.78399,4 -4,4 L 5,15 C 2.7839905,15 1,13.21601 1,11 L 1,5 C 1,2.7839905 2.7839905,1 5,1 z"
       transform="translate(0,1036.3622)"
       id="rect2985"
       style="color:#000000;fill:#448844;fill-opacity:1;fill-rule:nonzero;stroke:none;stroke-width:2;marker:none;visibility:visible;display:inline;overflow:visible;enable-background:accumulate" />
    <rect
       width="16"
       height="16"
       rx="4.0000172"
       ry="4.0000172"
       x="16"
       y="1036.3622"
       id="rect3774"
       style="color:#000000;fill:url(#linearGradient3782);fill-opacity:1;fill-rule:nonzero;stroke:none;stroke-width:2;marker:none;visibility:visible;display:inline;overflow:visible;enable-background:accumulate" />
    <path
       d="m 20,1036.3622 c -2.216009,0 -4,1.784 -4,4 l 0,8 c 0,2.216 1.783991,4 4,4 l 8,0 c 2.21601,0 4,-1.784 4,-4 l 0,-8 c 0,-2.216 -1.78399,-4 -4,-4 l -8,0 z m 1,1 6,0 c 2.21601,0 4,1.784 4,4 l 0,6 c 0,2.216 -1.78399,4 -4,4 l -6,0 c -2.216009,0 -4,-1.784 -4,-4 l 0,-6 c 0,-2.216 1.783991,-4 4,-4 z"
       id="path3776"
       style="color:#000000;fill:#448844;fill-opacity:1;fill-rule:nonzero;stroke:none;stroke-width:2;marker:none;visibility:visible;display:inline;overflow:visible;enable-background:accumulate" />
    <path
       d="m 18,1046.3622 4,4.0897 7,-8 0,-1.0897 -7,8 -4,-4 z"
       id="path3778"
       style="fill:#88ff88;fill-opacity:1;stroke:none" />
    <path
       d="m 18,1045.3622 4,4 7,-8 -1.485048,-1.2243 -5.514952,6.2243 -2.5,-2.5 z"
       id="path3780"
       style="fill:#002200;fill-opacity:1;stroke:none" />
  </g>
</svg>
